<?xml version="1.0" encoding="UTF-8"?>
<svg id="Layer_1" data-name="Layer 1" xmlns="http://www.w3.org/2000/svg" xmlns:xlink="http://www.w3.org/1999/xlink" viewBox="0 0 1920 1080">
  <defs>
    <style>
      .cls-1 {
        fill: url(#linear-gradient);
      }

      .cls-1, .cls-2 {
        stroke-width: 0px;
      }

      .cls-2 {
        fill: #fff;
      }
    </style>
    <linearGradient id="linear-gradient" x1="1935.84" y1="-11.73" x2="-20.41" y2="1094.31" gradientUnits="userSpaceOnUse">
      <stop offset="0" stop-color="#f59e0b"/>
      <stop offset=".15" stop-color="#ba7808"/>
      <stop offset=".32" stop-color="#825405"/>
      <stop offset=".48" stop-color="#533603"/>
      <stop offset=".63" stop-color="#2f1e02"/>
      <stop offset=".77" stop-color="#150d00"/>
      <stop offset=".9" stop-color="#050300"/>
      <stop offset="1" stop-color="#000"/>
    </linearGradient>
  </defs>
  <rect id="bg" class="cls-1" width="1920" height="1080"/>
  <g>
    <path class="cls-2" d="m446.61,470.87h74.47v47.29c0,2.78-.64,19.47-.86,28.46h.21c7.92-20.33,27.39-34.67,68.27-34.67,47.08,0,68.05,18.4,68.05,53.5v55.21h-74.47v-38.09c0-14.12-7.28-20.97-28.25-20.97-18.83,0-32.96,7.7-32.96,25.25v33.81h-74.47v-149.8Z"/>
    <path class="cls-2" d="m868.41,574.23h-125.19c2.57,9.63,10.91,14.98,33.17,14.98s27.82-4.28,29.32-8.56h62.7c-.86,23.11-26.75,43.01-95.45,43.01-81.54,0-105.08-28.46-105.08-54.79,0-36.17,40.66-56.92,104.01-56.92s96.52,19.9,96.52,53.71v8.56Zm-62.7-19.05c0-7.49-8.35-13.27-30.82-13.27-19.05,0-27.82,5.35-31.03,14.12h61.85v-.86Z"/>
    <path class="cls-2" d="m998.67,551.9c10.78,2.05,16.94,6.44,18.94,11.29l75.29-41.49v-21.72l-94.23,51.92Zm-14.27-1.21c1.35,0,2.66.03,3.92.08l104.58-57.64v-22.26h-74.69v58.21h-.43c-9.2-10.49-29.75-17.12-59.71-17.12-49.86,0-78.96,23.11-78.96,56.07s29.31,55.64,78.75,55.64c32.31,0,52.43-9.2,60.56-25.04h.64c-.21,6.63-.42,15.62-.85,22.04h74.69v-92.12l-75.12,41.4c-2.02,6.38-11.39,13.76-28.22,14.84h-.03c-1.38.09-2.8.14-4.28.14-19.69,0-31.67-6.63-31.67-17.33s11.77-16.91,30.82-16.91Z"/>
    <path class="cls-2" d="m1306.04,574.23h-125.19c2.57,9.63,10.91,14.98,33.17,14.98s27.82-4.28,29.32-8.56h62.7c-.86,23.11-26.75,43.01-95.45,43.01-81.54,0-105.08-28.46-105.08-54.79,0-36.17,40.66-56.92,104.01-56.92s96.52,19.9,96.52,53.71v8.56Zm-62.7-19.05c0-7.49-8.35-13.27-30.82-13.27-19.05,0-27.82,5.35-31.03,14.12h61.85v-.86Z"/>
    <path class="cls-2" d="m1336.43,555.83h-22.47v-40.88h22.47v-7.49c0-29.32,31.46-42.59,83.68-42.59,22.26,0,41.52,3,50.29,4.71v35.31c-9.2-1.07-22.26-2.14-33.6-2.14-20.12,0-25.89,3-25.89,9.2v3h62.49v40.88h-62.49v64.84h-74.47v-64.84Z"/>
    <path class="cls-2" d="m1186.42,491.85c.07,2.66-1.35,5.14-3.69,6.42l-24.37,13.43c-1.65.92-3.6,1.13-5.42.61l-28.2-8.16-31.84,17.55-75.29,41.49-24.51,13.51c-1.22.68-2.52,1.05-3.82,1.15l-.72-20.37,10.11-5.58,94.23-51.92,22.66-12.49,8.16-28.2c.53-1.81,1.76-3.35,3.41-4.26l24.37-13.43c2.33-1.29,5.19-1.17,7.4.31,2.21,1.48,3.42,4.07,3.13,6.72l-2.83,25.67,23.22,11.31c2.39,1.17,3.93,3.57,4,6.24Z"/>
    <path class="cls-2" d="m1186.42,491.85c.07,2.66-1.35,5.14-3.69,6.42l-24.37,13.43c-1.65.92-3.6,1.13-5.42.61l-28.2-8.16-31.84,17.55-75.29,41.49-24.51,13.51c-1.22.68-2.52,1.05-3.82,1.15-3.62.3-7.24-1.5-9.11-4.88-2.53-4.61-.86-10.39,3.74-12.93l4.65-2.56,10.11-5.58,94.23-51.92,22.66-12.49,8.16-28.2c.53-1.81,1.76-3.35,3.41-4.26l24.37-13.43c2.33-1.29,5.19-1.17,7.4.31,2.21,1.48,3.42,4.07,3.13,6.72l-2.83,25.67,23.22,11.31c2.39,1.17,3.93,3.57,4,6.24Z"/>
  </g>
</svg>