<?xml version="1.0" encoding="UTF-8"?>
<svg id="Layer_1" data-name="Layer 1" xmlns="http://www.w3.org/2000/svg" xmlns:xlink="http://www.w3.org/1999/xlink" viewBox="0 0 1054.04 627.53">
  <defs>
    <style>
      .cls-1 {
        filter: url(#drop-shadow-1);
      }

      .cls-2 {
        fill: #f59e0b;
        stroke-width: 0px;
      }
    </style>
    <filter id="drop-shadow-1" filterUnits="userSpaceOnUse">
      <feOffset dx="9" dy="9"/>
      <feGaussianBlur result="blur" stdDeviation="16"/>
      <feFlood flood-color="#000" flood-opacity=".75"/>
      <feComposite in2="blur" operator="in"/>
      <feComposite in="SourceGraphic"/>
    </filter>
  </defs>
  <g class="cls-1">
    <path class="cls-2" d="m361.13,377.22c4.63,0,9.12.1,13.44.28l358.7-197.7v-76.35h-256.18v199.65h-1.47c-31.56-35.98-102.04-58.72-204.8-58.72C99.81,244.38,0,323.65,0,436.7s100.53,190.83,270.1,190.83c110.82,0,179.83-31.55,207.71-85.88h2.2c-.72,22.74-1.44,53.57-2.92,75.59h256.18v-315.96l-257.65,142c-6.93,21.88-39.07,47.2-96.79,50.9h-.11c-4.73.31-9.6.48-14.68.48-67.53,0-108.62-22.74-108.62-59.44s40.37-58,105.71-58Z"/>
    <path class="cls-2" d="m1054.03,175.41c.24,9.12-4.63,17.63-12.66,22.02l-83.58,46.06c-5.66,3.16-12.35,3.88-18.59,2.09l-96.72-27.99-109.21,60.2-258.24,142.3-84.06,46.34c-4.19,2.33-8.65,3.6-13.1,3.95-12.42,1.03-24.84-5.15-31.25-16.74-8.68-15.81-2.95-35.64,12.83-44.35l15.95-8.78,34.67-19.14,323.2-178.08,77.72-42.84,27.99-96.72c1.82-6.21,6.03-11.49,11.69-14.61L934.26,3.06c7.99-4.43,17.8-4.02,25.38,1.06,7.58,5.08,11.73,13.96,10.74,23.05l-9.71,88.04,79.64,38.8c8.2,4.01,13.48,12.24,13.72,21.4Z"/>
  </g>
</svg>